# xmcd
#
# Track frame offsets:
#  150
#  16092
#  29372
#  46596
#  64633
#  82972
#  94683
#  112114
#  124618
#  143374
#  157959
#
# Disc length: 2291 seconds
#
# Revision: 0
# Processed by: cddbd v1.5.1PL2 Copyright (c) Steve Scherf et al.
# Submitted via: Collectorz.com_Music_Collector 6.11
#
DISCID=7608f10b
DTITLE=Various Artist - Nashville Star 2005 Finalists
DYEAR=2005
DGENRE=
TTITLE0=Jenny Farrell - Seven Year Ache
TTITLE1=Justin David - Ring Of Fire
TTITLE2=Casey Simpson - Somebody Like You
TTITLE3=Christy McDonald - Long Black Train
TTITLE4=Erika Jo Heriges - Break Down Here
TTITLE5=Jody Evans - Three Nickels And A Dime
TTITLE6=Tamika Tyler - You Don't Even Know Who I Am
TTITLE7=Jason Meadows - Workin' Man Blues
TTITLE8=Jayron Weaver - I'm Already There
TTITLE9=Josh Owen - Are You Sure Hank Done It This Way
TTITLE10=George Canyon - Who Would You Be
EXTD=
EXTT0=
EXTT1=
EXTT2=
EXTT3=
EXTT4=
EXTT5=
EXTT6=
EXTT7=
EXTT8=
EXTT9=
EXTT10=
PLAYORDER=
